HIERARCHY
ROOT joint_Root
{
	OFFSET 0.0 0.0 0.0
	CHANNELS 6 Xposition Yposition Zposition Zrotation Xrotation Yrotation 
	JOINT Hips
	{
		OFFSET -0.726466 93.3139 -2.00062
		CHANNELS 6 Xposition Yposition Zposition Zrotation Xrotation Yrotation 
		JOINT Spine
		{
			OFFSET 15.7357 0.0 0.0
			CHANNELS 6 Xposition Yposition Zposition Zrotation Xrotation Yrotation 
			JOINT Chest
			{
				OFFSET 8.98455 -0.406207 0.0
				CHANNELS 6 Xposition Yposition Zposition Zrotation Xrotation Yrotation 
				JOINT Neck
				{
					OFFSET 16.3773 0.0 0.0
					CHANNELS 6 Xposition Yposition Zposition Zrotation Xrotation Yrotation 
					JOINT Head
					{
						OFFSET 6.45672 0.0 0.0
						CHANNELS 6 Xposition Yposition Zposition Zrotation Xrotation Yrotation 
						End Site
						{
							OFFSET 0.0 0.0 0.0
						}
					}
				}
				JOINT Shoulder_L
				{
					OFFSET 12.9942 -0.242716 4.98039
					CHANNELS 6 Xposition Yposition Zposition Zrotation Xrotation Yrotation 
					JOINT UpperArm_L
					{
						OFFSET 5.34809 0.0 0.0
						CHANNELS 6 Xposition Yposition Zposition Zrotation Xrotation Yrotation 
						JOINT LowerArm_L
						{
							OFFSET 24.3286 1.87007e-05 0.0
							CHANNELS 6 Xposition Yposition Zposition Zrotation Xrotation Yrotation 
							JOINT Hand_L
							{
								OFFSET 22.2916 0.0 0.0
								CHANNELS 6 Xposition Yposition Zposition Zrotation Xrotation Yrotation 
								End Site
								{
									OFFSET 0.0 0.0 0.0
								}
							}
						}
					}
				}
				JOINT Shoulder_R
				{
					OFFSET 12.9945 -0.242716 -4.98039
					CHANNELS 6 Xposition Yposition Zposition Zrotation Xrotation Yrotation 
					JOINT UpperArm_R
					{
						OFFSET -5.34813 0.0 0.0
						CHANNELS 6 Xposition Yposition Zposition Zrotation Xrotation Yrotation 
						JOINT LowerArm_R
						{
							OFFSET -24.3289 0.000322201 0.0
							CHANNELS 6 Xposition Yposition Zposition Zrotation Xrotation Yrotation 
							JOINT Hand_R
							{
								OFFSET -22.2915 -0.000108084 0.0
								CHANNELS 6 Xposition Yposition Zposition Zrotation Xrotation Yrotation 
								End Site
								{
									OFFSET 0.0 0.0 0.0
								}
							}
						}
					}
				}
			}
		}
		JOINT UpperLeg_L
		{
			OFFSET -2.19248 -6.46944 0.0
			CHANNELS 6 Xposition Yposition Zposition Zrotation Xrotation Yrotation 
			JOINT LowerLeg_L
			{
				OFFSET 39.0811 0.0 -1.23785e-05
				CHANNELS 6 Xposition Yposition Zposition Zrotation Xrotation Yrotation 
				JOINT Foot_L
				{
					OFFSET 40.9854 0.0 -1.26872e-05
					CHANNELS 6 Xposition Yposition Zposition Zrotation Xrotation Yrotation 
					JOINT Toes_L
					{
						OFFSET 11.7543 0.0 0.0
						CHANNELS 6 Xposition Yposition Zposition Zrotation Xrotation Yrotation 
						End Site
						{
							OFFSET 0.0 0.0 0.0
						}
					}
				}
			}
		}
		JOINT UpperLeg_R
		{
			OFFSET -2.19251 6.46944 0.0
			CHANNELS 6 Xposition Yposition Zposition Zrotation Xrotation Yrotation 
			JOINT LowerLeg_R
			{
				OFFSET -39.0811 -0.00228153 -0.0401928
				CHANNELS 6 Xposition Yposition Zposition Zrotation Xrotation Yrotation 
				JOINT Foot_R
				{
					OFFSET -40.9854 0.0 0.0
					CHANNELS 6 Xposition Yposition Zposition Zrotation Xrotation Yrotation 
					JOINT Toes_R
					{
						OFFSET -11.7543 0.0 0.0
						CHANNELS 6 Xposition Yposition Zposition Zrotation Xrotation Yrotation 
						End Site
						{
							OFFSET 0.0 0.0 0.0
						}
					}
				}
			}
		}
	}
}
MOTION
Frames:	4
Frame Time:	0.0333333
0.000000 0.000000 0.000000 0.000000 0.000000 -0.000000 -0.858545 92.423400 -2.364610 88.135200 -1.011590 3.738830 15.735700 0.000005 -0.000001 83.087800 85.419800 -82.290400 8.984550 -0.406207 -0.000000 1.336550 -1.146650 1.606740 16.377300 -0.000001 -0.000001 1.920310 -2.038620 -0.168773 6.456720 -0.000001 -0.000000 3.933790 -2.320030 -2.437440 12.994200 -0.242716 4.980390 -90.282200 0.916221 -72.878200 5.348090 -0.000007 -0.000001 -67.416900 38.556700 -15.566600 24.328600 0.000019 0.000005 1.417510 3.339220 -23.016400 22.291600 -0.000001 0.000005 2.139330 5.469090 -5.336170 12.994500 -0.242716 -4.980390 88.151900 6.143170 -73.220900 -5.348130 -0.000001 -0.000004 -64.575000 41.448500 -16.379600 -24.328900 0.000322 -0.000009 2.011600 7.147420 -15.771700 -22.291500 -0.000108 -0.000004 8.133880 5.429870 -3.934470 -2.192480 -6.469440 -0.000000 -175.754000 -5.973140 -3.609030 39.081100 -0.000007 -0.000012 -0.089262 0.214768 22.568800 40.985400 -0.000006 -0.000013 -0.190682 3.429780 -65.445800 11.754300 -0.000000 0.000003 -0.000021 -0.000262 -16.587800 -2.192510 6.469440 -0.000001 -179.853000 13.005700 179.474000 -39.081100 -0.002282 -0.040193 -0.025933 0.085129 18.966600 -40.985400 0.000008 0.000006 3.555710 6.275720 -65.228200 -11.754300 -0.000006 -0.000006 -0.006015 -0.070972 -19.461600
0.000000 0.000000 0.000000 0.000000 0.000000 -0.000000 -0.871618 92.412600 -2.339540 88.069700 -1.082130 3.749510 15.735700 0.000005 -0.000001 83.719100 85.439900 -82.854100 8.984550 -0.406207 -0.000000 1.308220 -1.046050 1.740340 16.377300 -0.000001 -0.000001 2.096340 -1.884090 -0.042681 6.456720 -0.000001 -0.000000 4.027570 -2.173350 -2.632290 12.994200 -0.242716 4.980390 -90.426400 1.374070 -72.760200 5.348090 -0.000007 -0.000001 -66.474300 36.669800 -15.768000 24.328600 0.000019 0.000005 1.258430 2.635060 -25.539900 22.291600 -0.000001 0.000005 -0.655344 5.460200 -5.007130 12.994500 -0.242716 -4.980390 88.199400 5.998810 -73.258000 -5.348130 -0.000001 -0.000004 -64.701600 41.308800 -16.405700 -24.328900 0.000322 -0.000009 2.004890 7.162640 -15.690100 -22.291500 -0.000108 -0.000004 8.167350 5.430700 -3.962910 -2.192480 -6.469440 -0.000000 -175.667000 -6.036850 -3.625300 39.081100 -0.000007 -0.000012 -0.090219 0.215883 22.680500 40.985400 -0.000006 -0.000013 -0.204673 3.415820 -65.522500 11.754300 -0.000000 0.000003 -0.000022 -0.000275 -16.588300 -2.192510 6.469440 -0.000001 -179.797000 13.009800 179.494000 -39.081100 -0.002282 -0.040193 -0.027445 0.089502 18.971600 -40.985400 0.000008 0.000006 3.513690 6.352210 -65.235500 -11.754300 -0.000006 -0.000006 -0.006026 -0.071068 -19.465500
0.000000 0.000000 0.000000 0.000000 0.000000 -0.000000 -0.886039 92.407600 -2.322710 88.086400 -1.060860 3.850760 15.735700 0.000005 -0.000001 84.813200 85.437900 -83.920700 8.984550 -0.406207 -0.000000 1.328470 -0.874583 1.793650 16.377300 -0.000001 -0.000001 2.351510 -1.780550 0.008355 6.456720 -0.000001 -0.000000 4.159640 -2.180890 -2.547780 12.994200 -0.242716 4.980390 -90.561700 1.783790 -72.519400 5.348090 -0.000007 -0.000001 -64.003700 34.838600 -17.449600 24.328600 0.000019 0.000005 0.944301 1.672610 -29.452400 22.291600 -0.000001 0.000005 -3.607500 5.462480 -5.092210 12.994500 -0.242716 -4.980390 88.242800 5.865960 -73.291900 -5.348130 -0.000001 -0.000004 -64.970700 41.066900 -16.255100 -24.328900 0.000322 -0.000009 2.006720 7.153830 -15.722000 -22.291500 -0.000108 -0.000004 8.102140 5.429170 -3.910660 -2.192480 -6.469440 -0.000000 -175.673000 -5.907290 -3.502750 39.081100 -0.000007 -0.000012 -0.091583 0.219149 22.680400 40.985400 -0.000006 -0.000013 -0.228066 3.354550 -65.546700 11.754300 -0.000000 0.000003 -0.000022 -0.000278 -16.588400 -2.192510 6.469440 -0.000001 -179.853000 13.089000 179.613000 -39.081100 -0.002282 -0.040193 -0.028941 0.093768 18.987400 -40.985400 0.000008 0.000006 3.449440 6.422850 -65.256900 -11.754300 -0.000006 -0.000006 -0.006011 -0.070935 -19.460100
0.000000 0.000000 0.000000 0.000000 0.000000 -0.000000 -0.923629 92.393500 -2.331490 88.094200 -0.884230 3.983830 15.735700 0.000005 -0.000001 85.872600 85.417600 -84.953800 8.984550 -0.406207 -0.000000 1.381380 -0.710476 1.844650 16.377300 -0.000001 -0.000001 2.710700 -1.740550 0.046685 6.456720 -0.000001 -0.000000 4.240980 -2.402420 -2.475150 12.994200 -0.242716 4.980390 -90.619600 1.937440 -72.262900 5.348090 -0.000007 -0.000001 -60.865300 32.168800 -20.199700 24.328600 0.000019 0.000005 2.008220 2.889680 -34.814400 22.291600 -0.000001 0.000005 -3.748100 5.482550 -5.845280 12.994500 -0.242716 -4.980390 88.281100 5.759290 -73.350300 -5.348130 -0.000001 -0.000004 -65.098600 41.133000 -16.220700 -24.328900 0.000322 -0.000009 2.000250 7.150340 -15.681000 -22.291500 -0.000108 -0.000004 8.096300 5.429510 -3.922390 -2.192480 -6.469440 -0.000000 -175.650000 -5.761650 -3.466700 39.081100 -0.000007 -0.000012 -0.092726 0.220717 22.787800 40.985400 -0.000006 -0.000013 -0.244731 3.392550 -65.566900 11.754300 -0.000000 0.000003 -0.000026 -0.000319 -16.590000 -2.192510 6.469440 -0.000001 -179.882000 13.234800 179.715000 -39.081100 -0.002282 -0.040193 -0.031228 0.099889 19.080000 -40.985400 0.000008 0.000006 3.403020 6.390150 -65.309700 -11.754300 -0.000006 -0.000006 -0.006102 -0.071763 -19.493800
